:SAMPLES-PER-SECOND 30
:FULLY-SPECIFIED
:DEGREES
16
root  -66.9215 36.9527 -0.47544 -22.0456 78.2649 -19.2584
RightUpLeg  17.6601 3.99453 6.77421
RightLeg  18.0495 14.8843 2.00065
RightFoot  -23.313 -0.527129 -6.01562
RightToes  2.85217e-009 -3.18055e-015 8.94531e-016
Spine  -6.53813 6.17738 17.3966
Spine1  15.6267 9.50508 -12.8632
HEad  11.1582 -1.40749 2.79162
LeftShoulder1  0 -2.69403e-036 -1.28585e-037
LeftArm  -9.1368 27.3866 -75.8886
LeftForeArm  -155.326 -60.1308 160.514
LeftHand  1.63954 12.5916 -2.00697
RightShoulder  -2.48481e-017 0 -8.08114e-019
RightArm  4.99606 -27.6887 83.2038
RightForeArm  -57.9378 58.814 -68.4447
RightHand  1.73304 -14.3517 -4.5461
LeftUpLeg  -31.8556 0.360695 4.65927
LeftLeg  1.28836 4.28502 0.477001
LeftFoot  -1.71286 0.556189 -5.39165
LeftToes  -3.29237e-010 -4.9359e-011 -7.59376e-011
17
root  -64.9124 36.3856 -0.606989 -13.9429 76.5196 -11.6882
RightUpLeg  18.2455 4.14855 3.27811
RightLeg  22.1775 17.6686 3.88352
RightFoot  -23.6709 -0.367276 -4.17094
RightToes  2.85217e-009 -3.18055e-015 8.94531e-016
Spine  -6.83919 6.8135 16.6597
Spine1  15.2236 10.4313 -14.036
HEad  11.8118 -0.859599 3.16516
LeftShoulder1  0 -2.69403e-036 -1.28585e-037
LeftArm  -9.05704 27.0423 -74.3203
LeftForeArm  -156.701 -58.9503 162.052
LeftHand  1.64237 12.3236 -1.20606
RightShoulder  -2.48481e-017 0 -8.08114e-019
RightArm  3.96141 -28.1449 84.5363
RightForeArm  -60.5736 59.8102 -72.5517
RightHand  1.73449 -14.3605 -4.54424
LeftUpLeg  -33.2561 -0.210021 4.36255
LeftLeg  6.40172 6.50544 2.02486
LeftFoot  5.12658 0.252748 -1.69549
LeftToes  -3.29237e-010 -4.9359e-011 -7.59376e-011
18
root  -63.0768 35.7998 -0.71985 -6.49936 75.9022 -4.21574
RightUpLeg  17.4194 2.97238 -1.09839
RightLeg  29.6761 20.2985 6.68348
RightFoot  -21.2017 -0.0437687 -0.78853
RightToes  2.85217e-009 -3.18055e-015 8.94531e-016
Spine  -5.40864 6.55552 13.9754
Spine1  13.7943 10.2014 -14.3159
HEad  11.7563 -0.397467 3.51173
LeftShoulder1  0 -2.69403e-036 -1.28585e-037
LeftArm  -9.24384 25.2644 -72.7251
LeftForeArm  -157.501 -58.1891 162.962
LeftHand  1.63482 11.7611 0.500424
RightShoulder  -2.48481e-017 0 -8.08114e-019
RightArm  2.979 -28.3401 85.8752
RightForeArm  -63.3042 60.6872 -77.0277
RightHand  1.7398 -14.3211 -4.67052
LeftUpLeg  -35.2153 0.165826 2.77419
LeftLeg  13.2167 6.13876 3.52753
LeftFoot  14.1932 -0.414926 1.83678
LeftToes  -3.29237e-010 -4.9359e-011 -7.59376e-011
19
root  -61.5438 35.2099 -0.798144 0.524307 77.0978 3.66797
RightUpLeg  15.0989 1.62208 -4.61807
RightLeg  40.508 19.7813 8.90507
RightFoot  -13.7504 -0.00527201 3.59035
RightToes  2.85217e-009 -3.18055e-015 8.94531e-016
Spine  -2.22289 5.39125 9.78593
Spine1  12.3269 8.75898 -13.5039
HEad  10.572 -0.545716 3.66139
LeftShoulder1  0 -2.69403e-036 -1.28585e-037
LeftArm  -9.71754 21.2234 -72.2655
LeftForeArm  -156.283 -58.6041 162.399
LeftHand  1.5899 10.9639 2.6854
RightShoulder  -2.48481e-017 0 -8.08114e-019
RightArm  1.9141 -27.8098 86.7041
RightForeArm  -66.827 61.4586 -82.0043
RightHand  1.76619 -14.3137 -5.06016
LeftUpLeg  -37.3163 1.48352 -0.481292
LeftLeg  21.3939 2.23125 4.66077
LeftFoot  17.4366 -1.10835 4.25715
LeftToes  -3.29237e-010 -4.9359e-011 -7.59376e-011
20
root  -60.3694 34.7237 -0.853392 8.5421 78.8997 12.6265
RightUpLeg  10.827 1.17038 -6.4213
RightLeg  52.2359 16.6636 8.66784
RightFoot  -3.54347 -0.688552 7.90531
RightToes  2.85217e-009 -3.18055e-015 8.94531e-016
Spine  1.50342 4.16293 5.64988
Spine1  11.6593 7.11398 -12.628
HEad  9.42841 -1.13609 3.55154
LeftShoulder1  0 -2.69403e-036 -1.28585e-037
LeftArm  -10.1832 15.6801 -73.2382
LeftForeArm  -153.702 -59.9083 160.636
LeftHand  1.54518 10.3698 4.59029
RightShoulder  -2.48481e-017 0 -8.08114e-019
RightArm  0.87465 -26.4325 87.0308
RightForeArm  -71.0174 62.0461 -87.0357
RightHand  1.82944 -14.471 -5.61313
LeftUpLeg  -38.8647 1.6666 -3.53128
LeftLeg  28.8256 -0.891806 5.41372
LeftFoot  14.0249 -1.42806 6.06446
LeftToes  -3.29237e-010 -4.9359e-011 -7.59376e-011
21
root  -59.4494 34.4598 -0.907458 14.6931 79.8635 19.2187
RightUpLeg  4.85993 1.99933 -6.53789
RightLeg  62.6569 13.6275 6.49531
RightFoot  3.38188 -1.40064 9.80052
RightToes  2.85217e-009 -3.18055e-015 8.94531e-016
Spine  4.8191 3.43777 2.70417
Spine1  11.4458 5.92161 -12.0761
HEad  9.42066 -1.4166 3.14671
LeftShoulder1  0 -2.69403e-036 -1.28585e-037
LeftArm  -10.5768 10.1956 -74.8803
LeftForeArm  -151.582 -60.9507 159.084
LeftHand  1.52302 10.0755 5.87726
RightShoulder  -2.48481e-017 0 -8.08114e-019
RightArm  0.212991 -24.3284 87.0681
RightForeArm  -75.4416 62.4478 -92.1668
RightHand  1.91715 -14.6767 -6.37353
LeftUpLeg  -39.6309 1.26182 -5.25979
LeftLeg  33.8518 -1.93699 6.1859
LeftFoot  9.40056 -1.35538 6.83517
LeftToes  -3.29237e-010 -4.9359e-011 -7.59376e-011
